<svg xmlns="http://www.w3.org/2000/svg" viewBox="0 0 55.98 61.49"><defs><style>.cls-1{fill:#4f46e5;}</style></defs><g id="Layer_2" data-name="Layer 2"><g id="Layer_1-2" data-name="Layer 1"><path class="cls-1" d="M28,60.88l-4-4.45a4,4,0,0,0-3-1.33H1.73V27.42H10.8v3.8H5.52V51.3H21a7.84,7.84,0,0,1,5.8,2.58L28,55.21l1.2-1.33A7.84,7.84,0,0,1,35,51.3H50.44V31.22H45.17v-3.8h9.07V55.09H35a4,4,0,0,0-3,1.33Z"/><path class="cls-1" d="M56,18.24,28,0,0,18.38l8.9,5.8V41H21a4,4,0,0,1,3,1.33l4,4.45,4-4.45A4,4,0,0,1,35,41H47.05V24.09Zm-12.71,19H35a7.82,7.82,0,0,0-5.8,2.58L28,41.15l-1.2-1.33A7.82,7.82,0,0,0,21,37.24H12.71V26.65L28,36.61l15.27-10Z"/><path class="cls-1" d="M35.61,57.71H54.28v3.78H33.08V60.24A2.53,2.53,0,0,1,35.61,57.71Z"/><path class="cls-1" d="M20.47,57.71H1.8v3.78H23V60.24A2.53,2.53,0,0,0,20.47,57.71Z"/></g></g></svg>